<svg xmlns="http://www.w3.org/2000/svg" version="1.1" xmlns:xlink="http://www.w3.org/1999/xlink" xmlns:svgjs="http://svgjs.dev/svgjs" width="2000" height="1487" viewBox="0 0 2000 1487"><g transform="matrix(1,0,0,1,0.5888650246953375,0.602024291497969)"><svg viewBox="0 0 332 247" data-background-color="#ffffff" preserveAspectRatio="xMidYMid meet" height="1487" width="2000" xmlns="http://www.w3.org/2000/svg" xmlns:xlink="http://www.w3.org/1999/xlink"><g id="tight-bounds" transform="matrix(1,0,0,1,-0.09775159409943512,-0.09999999999999432)"><svg viewBox="0 0 332.19550318819887 247.2" height="247.2" width="332.19550318819887"><g><svg viewBox="0 0 395.52 294.32229835034485" height="247.2" width="332.19550318819887"><g transform="matrix(1,0,0,1,0,181.90298800551724)"><svg viewBox="0 0 395.52 112.4193103448276" height="112.4193103448276" width="395.52"><g id="textblocktransform"><svg viewBox="0 0 395.52 112.4193103448276" height="112.4193103448276" width="395.52" id="textblock"><g><svg viewBox="0 0 395.52 112.4193103448276" height="112.4193103448276" width="395.52"><g transform="matrix(1,0,0,1,0,0)"><svg width="395.52" viewBox="3 -30.75 149.32 42.45" height="112.4193103448276" data-palette-color="url(#2b7bb13b-33ba-45e7-85b2-286a7ec33178)"></svg></g></svg></g></svg></g></svg></g><g transform="matrix(1,0,0,1,120.07825655172414,0)"><svg viewBox="0 0 155.3634868965517 155.36348689655173" height="155.36348689655173" width="155.3634868965517"><g><svg></svg></g><g id="icon-0"><svg viewBox="0 0 155.3634868965517 155.36348689655173" height="155.36348689655173" width="155.3634868965517"><g></g><g transform="matrix(1,0,0,1,31.072697379310334,40.67154125266099)"><svg viewBox="0 0 93.21809213793104 74.02040439122976" height="74.02040439122976" width="93.21809213793104"><g><svg xmlns="http://www.w3.org/2000/svg" xmlns:xlink="http://www.w3.org/1999/xlink" version="1.1" x="0" y="0" viewBox="2.635999999999997 11.36 84.727 67.278" enable-background="new 0 0 90 90" xml:space="preserve" height="74.02040439122976" width="93.21809213793104" class="icon-cg-0" data-fill-palette-color="quaternary" id="cg-0"><path d="M65.488 65.37c-0.571 0.471-1.272 0.724-1.988 0.741-0.424 0.009-0.85-0.063-1.255-0.223-0.492-0.195-0.905-0.517-1.24-0.899-3.28 4.264-7.92 7.411-13.282 8.8 2.99-2.082 5.463-5.671 7.121-10.209h5.453c-0.021-0.096-0.063-0.182-0.074-0.279l-0.285-2.165H55.63c0.841-2.991 1.343-6.308 1.438-9.836h1.574l-0.322-2.444h-1.252c-0.045-1.637-0.187-3.225-0.396-4.757-0.779 0.217-1.588 0.431-2.39 0.645 0.174 1.336 0.302 2.7 0.344 4.112h-8.61L45.52 51.3h9.105c-0.104 3.541-0.639 6.884-1.537 9.836H42.795v-5.401l-1.252 0.875c-0.363 0.257-0.772 0.399-1.192 0.486v4.04H30.058c-0.439-1.446-0.79-2.989-1.047-4.6-0.267 0.108-0.542 0.217-0.804 0.329-0.524 0.223-0.992 0.445-1.49 0.668 0.219 1.238 0.477 2.451 0.798 3.603h-7.807v-0.002c-0.703 0.429-1.374 0.857-1.996 1.292-0.491 0.346-0.938 0.686-1.361 1.023 4.805 9.025 14.303 15.189 25.221 15.189 10.239 0 19.208-5.433 24.25-13.549L65.488 65.37zM21.114 63.58h7.188c1.661 4.538 4.13 8.127 7.121 10.209C29.482 72.252 24.412 68.564 21.114 63.58zM40.351 73.266c-3.883-0.645-7.27-4.322-9.421-9.686h9.421V73.266zM42.795 63.58h9.421c-2.149 5.361-5.54 9.041-9.421 9.686V63.58z" fill="#ffffff" data-fill-palette-color="quaternary"></path><path d="M87.363 24.459c-3.995-2.627-12.348-0.773-21.615 2.803L49.466 11.36l-5.485 0.188L57.07 30.955c-5.385 2.476-10.719 5.232-15.396 7.779l-6.756-5.102-2.806 0.327 6.977 8.789 0.601 11.208 2.317-1.617 1.677-8.297c5.19-1.188 11.015-2.66 16.687-4.372l3.053 23.206 4.232-3.495 1.654-22.695C78.628 33.219 86.111 29.072 87.363 24.459z" fill="#ffffff" data-fill-palette-color="quaternary"></path><path d="M48.527 24.071l-1.348-1.999c-1.819-0.362-3.688-0.56-5.61-0.56-14.262 0-26.082 10.519-28.192 24.199 1.755-1.324 3.46-2.488 5.021-3.501 0.37-1.097 0.789-2.173 1.308-3.194h3.933c1.418-0.817 2.874-1.633 4.406-2.444h-6.933c3.296-4.984 8.368-8.671 14.31-10.209-1.592 1.11-3.032 2.657-4.287 4.538 0.197-0.063 0.393-0.13 0.604-0.153l2.806-0.327c0.017-0.001 0.037 0 0.052-0.001 1.697-1.917 3.647-3.184 5.752-3.532v6.794l1.615 1.221c0.282-0.151 0.549-0.284 0.829-0.435v-7.58c2.373 0.393 4.56 1.933 6.396 4.285l3.166-1.505L48.527 24.071z" fill="#ffffff" data-fill-palette-color="quaternary"></path><path d="M35.919 43.951l-4.397-5.538c-2.987 1.531-6.322 3.345-9.807 5.517-3.892 2.446-7.978 5.27-11.725 8.869-1.86 1.813-3.648 3.828-5.098 6.258-0.717 1.217-1.339 2.549-1.767 3.991-0.115 0.353-0.192 0.733-0.28 1.101-0.047 0.183-0.069 0.375-0.104 0.563l-0.102 0.681-0.003 0.832 0.023 1.226c0.107 1.477 0.501 3.049 1.285 4.42 0.766 1.383 1.916 2.446 3.06 3.128 2.327 1.363 4.509 1.586 6.388 1.697 3.773 0.115 6.669-0.5 8.695-0.902 0.631-0.134 1.162-0.256 1.612-0.361-5.88-0.309-9.543-1.719-11.51-2.787-0.562-0.285-1.083-0.605-1.528-0.977-0.205-0.159-0.317-0.263-0.317-0.263l0.038-0.003c-0.121-0.115-0.262-0.223-0.364-0.346-0.886-1.059-0.909-2.021-0.595-3.401 0.054-0.142 0.101-0.271 0.14-0.405l0.239-0.799 0.008-0.023c0.022-0.125-0.022 0.141-0.016 0.106l0.013-0.028 0.022-0.063 0.044-0.121c0.033-0.079 0.051-0.159 0.092-0.242 0.079-0.163 0.133-0.326 0.228-0.491 0.332-0.663 0.786-1.338 1.348-2.008 1.127-1.343 2.652-2.629 4.323-3.804 3.372-2.351 7.309-4.276 11.085-5.885 3.284-1.394 6.455-2.523 9.317-3.473L35.919 43.951z" fill="#ffffff" data-fill-palette-color="quaternary"></path></svg></g></svg></g></svg></g></svg></g><g></g></svg></g><defs></defs><mask id="f1eaf404-dd6d-42e3-81ad-065e6301282d"><g id="SvgjsG1130"><svg viewBox="0 0 332.19550318819887 247.2" height="247.2" width="332.19550318819887"><g><svg viewBox="0 0 395.52 294.32229835034485" height="247.2" width="332.19550318819887"><g transform="matrix(1,0,0,1,0,181.90298800551724)"><svg viewBox="0 0 395.52 112.4193103448276" height="112.4193103448276" width="395.52"><g id="SvgjsG1129"><svg viewBox="0 0 395.52 112.4193103448276" height="112.4193103448276" width="395.52" id="SvgjsSvg1128"><g><svg viewBox="0 0 395.52 112.4193103448276" height="112.4193103448276" width="395.52"><g transform="matrix(1,0,0,1,0,0)"><svg width="395.52" viewBox="3 -30.75 149.32 42.45" height="112.4193103448276" data-palette-color="url(#2b7bb13b-33ba-45e7-85b2-286a7ec33178)"><path d="M5.3 11.7L5.3 11.7Q4.25 11.7 4.25 10.5L4.25 10.5Q4.25 9.5 4.85 8.15L4.85 8.15Q5.35 7.05 5.95 5.98 6.55 4.9 7.3 3.85L7.3 3.85Q9.8 0.45 12.2-2.3 14.6-5.05 17.3-7.53 20-10 23.3-12.4L23.3-12.4Q24-14 24.53-15.35 25.05-16.7 25.3-17.85L25.3-17.85Q25.1-17.65 24-16.57 22.9-15.5 20.9-13.6L20.9-13.6 17.8-10.7Q15.7-8.7 14.25-7.43 12.8-6.15 11.25-5L11.25-5Q7.7-2.35 5.45-2.35L5.45-2.35Q4.9-2.35 4.75-2.4L4.75-2.4Q3-2.8 3-4.95L3-4.95Q3-6.6 4-9.05L4-9.05Q5-11.5 6.73-14.23 8.45-16.95 10.3-19.2L10.3-19.2Q12.2-21.5 14.33-23.6 16.45-25.7 18.6-27.38 20.75-29.05 22.55-29.9L22.55-29.9Q24.35-30.75 26.4-30.75L26.4-30.75Q26.8-30.75 27.25-30.7 27.7-30.65 28.2-30.55L28.2-30.55Q29.3-30.3 30.05-29.43 30.8-28.55 30.8-27.3L30.8-27.3Q30.8-26.05 29.95-24.65L29.95-24.65Q29.55-24.05 28.9-23.58 28.25-23.1 27.75-23L27.75-23 27.6-23Q27.15-23 27.15-23.35L27.15-23.35 27.15-23.45Q27.15-24 27.7-24.8L27.7-24.8Q28.8-26.5 28.8-27.9L28.8-27.9Q28.8-29.3 27.45-29.3L27.45-29.3Q26.2-29.3 23.65-27.85L23.65-27.85Q21.85-26.85 19.83-25.33 17.8-23.8 15.83-22.05 13.85-20.3 12.2-18.5L12.2-18.5Q10.55-16.7 9.03-14.45 7.5-12.2 6.55-10.1L6.55-10.1Q5.5-7.8 5.5-6.4L5.5-6.4Q5.5-5.05 6.45-4.85L6.45-4.85Q6.7-4.8 6.9-4.78 7.1-4.75 7.2-4.75L7.2-4.75Q8.85-4.75 10.65-5.95 12.45-7.15 14.5-8.95L14.5-8.95Q16.7-11 18.68-12.98 20.65-14.95 22.3-16.9L22.3-16.9 24.5-19.5 25.4-20.55Q25.7-20.9 26.3-20.9L26.3-20.9Q26.9-20.9 27.38-20.58 27.85-20.25 27.8-19.8L27.8-19.8Q27.6-18.8 27.18-17.38 26.75-15.95 26.05-14.15L26.05-14.15Q27.05-14.7 27.83-15.13 28.6-15.55 29.15-15.8L29.15-15.8Q29.55-15.95 29.7-15.9L29.7-15.9Q29.85-15.9 29.85-15.75L29.85-15.75Q29.85-15.6 29.6-15.33 29.35-15.05 28.9-14.85L28.9-14.85Q28.35-14.55 27.48-13.95 26.6-13.35 25.35-12.5L25.35-12.5Q23.85-9.05 21.68-5.33 19.5-1.6 16.88 1.88 14.25 5.35 11.35 8.15L11.35 8.15Q10.5 8.95 9.38 9.78 8.25 10.6 7.18 11.15 6.1 11.7 5.3 11.7ZM8.05 8.65L8.05 8.65Q8.9 8.65 9.58 8.1 10.25 7.55 10.6 7.2L10.6 7.2Q13.5 4.4 16.55-0.25 19.6-4.9 22.25-10.2L22.25-10.2Q19.85-8.25 18.05-6.65 16.25-5.05 14.78-3.48 13.3-1.9 11.88-0.1 10.45 1.7 8.8 4L8.8 4Q7.75 5.4 7.3 7L7.3 7Q7.25 7.15 7.23 7.35 7.2 7.55 7.2 7.8L7.2 7.8Q7.2 8.65 8.05 8.65ZM25.3 3.3L25.3 3.3Q24.75 3.3 24.37 2.95 24 2.6 24.05 2.1L24.05 2.1Q24.15 0.05 24.82-1.85 25.5-3.75 26.8-6.4L26.8-6.4Q26.95-6.75 27.07-7.03 27.2-7.3 27.3-7.5L27.3-7.5Q28.4-9.85 29.55-12 30.7-14.15 31.85-16.2L31.85-16.2 32.55-17.45Q33.75-19.6 34.65-20.93 35.55-22.25 36.45-22.85L36.45-22.85Q37.6-23.55 37.85-23.55L37.85-23.55Q38.25-23.55 38.65-22.85L38.65-22.85Q38.9-22.35 37.65-20.4L37.65-20.4Q37-19.4 36.02-17.9 35.05-16.4 33.7-14.5L33.7-14.5Q33.45-14.15 32.87-13.28 32.3-12.4 31.35-11L31.35-11Q30.4-9.6 29.7-8.47 29-7.35 28.55-6.5L28.55-6.5Q27.65-4.85 26.85-2.98 26.05-1.1 26.05-0.05L26.05-0.05Q26.05 0.9 26.8 0.9L26.8 0.9Q28 0.9 30.65-1.15L30.65-1.15Q30.95-1.1 30.95-0.85L30.95-0.85Q30.95-0.65 30.45-0.15L30.45-0.15Q30 0.3 29.32 0.83 28.65 1.35 27.75 2.05L27.75 2.05 26.95 2.65Q26.15 3.3 25.3 3.3ZM34.49 0.85L34.49 0.85Q32.54 0.85 32.54-0.9L32.54-0.9Q32.54-1 32.57-1.25 32.59-1.5 32.64-1.85L32.64-1.85Q33.14-3.9 34.67-5.83 36.19-7.75 38.19-9.2L38.19-9.2Q38.94-9.8 40.59-9.8L40.59-9.8Q41.55-9.8 42.27-9.53 42.99-9.25 43.3-8.7L43.3-8.7Q43.59-8.2 43.59-7.55L43.59-7.55Q43.59-7.45 43.57-7.25 43.55-7.05 43.49-6.8L43.49-6.8Q43.59-6.85 43.82-6.85 44.05-6.85 44.39-6.9L44.39-6.9Q44.74-6.95 45.07-7 45.39-7.05 45.74-7.05L45.74-7.05 45.94-7.05Q46.49-7.05 46.07-6.63 45.64-6.2 44.94-6.1L44.94-6.1 43.24-5.9Q42.74-4.5 41.52-3.1 40.29-1.7 38.82-0.68 37.34 0.35 36.04 0.65L36.04 0.65Q35.29 0.85 34.49 0.85ZM40.89-6.6L40.89-6.6Q41.19-6.6 41.62-6.63 42.05-6.65 42.59-6.7L42.59-6.7Q42.64-6.8 42.64-7.15L42.64-7.15Q42.64-8.05 41.89-8.4L41.89-8.4Q41.49-8.65 40.89-8.65L40.89-8.65Q40.14-8.65 39.37-8.18 38.59-7.7 37.74-6.95L37.74-6.95Q38.79-6.6 40.89-6.6ZM35.99-0.9L35.99-0.9Q36.49-0.9 37.42-1.38 38.34-1.85 39.34-2.65 40.34-3.45 41.14-4.35L41.14-4.35Q41.39-4.6 41.64-4.98 41.89-5.35 42.19-5.75L42.19-5.75 40.99-5.6Q38.19-5.2 35.99-5.15L35.99-5.15Q34.89-3.35 34.64-2.15L34.64-2.15Q34.59-1.5 34.99-1.2 35.39-0.9 35.99-0.9ZM44.74 2.25L44.74 2.25Q43.59 2.25 43.59 1L43.59 1Q43.59 0.05 44.09-1L44.09-1 47.64-8.75Q48.04-9.6 48.74-11.03 49.44-12.45 50.44-14.5L50.44-14.5Q50.54-14.7 50.67-14.95 50.79-15.2 50.94-15.45L50.94-15.45Q51.24-16 51.54-16.65L51.54-16.65 52.14-17.9Q53.09-19.9 53.82-21.08 54.54-22.25 55.44-22.85L55.44-22.85Q56.59-23.55 56.89-23.55L56.89-23.55Q57.24-23.55 57.64-22.85L57.64-22.85Q57.64-22.8 57.67-22.8 57.69-22.8 57.69-22.75L57.69-22.75Q57.69-22.45 57.24-21.75L57.24-21.75Q56.94-21.3 56.42-20.53 55.89-19.75 55.14-18.65L55.14-18.65Q52.39-14.7 50.47-11.5 48.54-8.3 47.24-5.05L47.24-5.05Q48.49-6.15 49.92-7.25 51.34-8.35 52.34-8.95L52.34-8.95Q53.74-9.75 54.79-9.75L54.79-9.75Q56.39-9.75 56.39-7.65L56.39-7.65Q56.39-5.35 55.04-3.48 53.69-1.6 51.32-0.23 48.94 1.15 45.94 2L45.94 2Q45.29 2.25 44.74 2.25ZM45.89 0.4L46.49 0.45Q48.34 0.45 50.19-0.8L50.19-0.8Q52.04-2 53.22-3.73 54.39-5.45 54.39-6.8L54.39-6.8Q54.39-7.65 53.84-8.2L53.84-8.2Q53.39-8.3 52.09-7.58 50.79-6.85 49.32-5.68 47.84-4.5 46.69-3.25L46.69-3.25Q45.69-0.2 45.89 0.4L45.89 0.4ZM59.64 0.55L59.64 0.55Q58.59 0.55 57.79 0L57.79 0Q56.49-1 56.49-3L56.49-3Q56.49-5 57.89-7.25 59.29-9.5 62.14-11.4L62.14-11.4Q62.64-11.75 63.49-11.75L63.49-11.75Q64.59-11.75 65.47-11.15 66.34-10.55 66.14-9.6L66.14-9.6Q65.79-8.05 64.61-6.85 63.44-5.65 61.87-4.73 60.29-3.8 58.64-2.95L58.64-2.95Q58.59-2.8 58.56-2.65 58.54-2.5 58.54-2.35L58.54-2.35Q58.54-1.65 59.02-1.13 59.49-0.6 60.34-0.6L60.34-0.6Q60.99-0.6 61.44-0.8L61.44-0.8Q62.24-1.1 62.77-1.35 63.29-1.6 63.99-2.1 64.69-2.6 65.89-3.6L65.89-3.6Q66.44-4 66.54-4L66.54-4Q66.84-4 66.74-3.55L66.74-3.55Q66.24-2.75 65.02-1.8 63.79-0.85 62.31-0.15 60.84 0.55 59.64 0.55ZM58.94-4.3L58.94-4.3Q59.34-4.3 60.59-5.1 61.84-5.9 62.94-6.85L62.94-6.85Q64.84-8.6 64.84-9.55L64.84-9.55Q64.84-9.8 64.69-10L64.69-10Q64.54-10.25 64.24-10.25L64.24-10.25Q63.29-10.25 61.04-8L61.04-8Q59.49-6.5 58.94-4.3ZM72.89-14.1L72.89-14.1Q72.39-14.1 71.79-14.35L71.79-14.35Q70.39-14.75 68.94-16.05L68.94-16.05Q67.39-17.4 66.29-19.28 65.19-21.15 64.99-22.95L64.99-22.95Q64.94-23.15 64.94-23.45 64.94-23.75 64.94-24.15L64.94-24.15Q64.94-30.65 72.94-30.65L72.94-30.65Q76.99-30.65 81.86-29.35 86.74-28.05 93.09-25.9L93.09-25.9Q94.24-25.5 95.21-25.18 96.19-24.85 96.99-24.6L96.99-24.6Q98.94-24.05 100.39-24.05L100.39-24.05Q102.04-24.05 102.76-24.7 103.49-25.35 103.49-26.15L103.49-26.15 103.49-26.35Q103.49-26.95 103.84-26.95L103.84-26.95Q104.24-26.95 104.69-26.35L104.69-26.35Q104.79-26.25 104.79-25.95L104.79-25.95Q104.79-24.8 103.44-23.8 102.09-22.8 100.09-22.8L100.09-22.8Q99.79-22.8 99.56-22.8 99.34-22.8 99.14-22.85L99.14-22.85Q97.19-23.1 94.86-23.78 92.54-24.45 89.14-25.6L89.14-25.6Q84.39-27.2 81.24-28.05 78.09-28.9 75.39-28.9L75.39-28.9Q72.44-28.9 70.41-27.6 68.39-26.3 67.44-23.35L67.44-23.35Q67.29-22.9 67.29-22.35L67.29-22.35Q67.29-21.4 67.74-20.23 68.19-19.05 68.94-17.95 69.69-16.85 70.54-16.07 71.39-15.3 72.14-15.15L72.14-15.15Q73.34-14.9 73.34-14.35L73.34-14.35Q73.34-14.1 72.89-14.1ZM73.84 3.45L73.84 3.45Q72.69 3.45 72.79 1.95L72.79 1.95Q73.19-1.2 74.79-4.8L74.79-4.8Q75.59-6.65 77.11-9.58 78.64-12.5 80.89-16.45L80.89-16.45Q82.44-19.25 83.41-20.8 84.39-22.35 85.49-23.1L85.49-23.1Q86.44-23.75 87.29-23.75L87.29-23.75Q88.09-23.75 87.69-23.1L87.69-23.1Q86.89-22 85.76-20.33 84.64-18.65 83.19-16.4L83.19-16.4Q81.29-13.4 79.49-10.3 77.69-7.2 76.44-4.63 75.19-2.05 74.79-0.5L74.79-0.5Q74.64 0.1 74.64 0.5L74.64 0.5Q74.64 1.35 75.34 1.35L75.34 1.35Q76.44 1.35 79.34-0.9L79.34-0.9Q79.44-1 79.59-1L79.59-1Q79.79-1 79.79-0.75L79.79-0.75Q79.79-0.45 79.59-0.25L79.59-0.25Q79.39-0.05 79.09 0.18 78.79 0.4 78.39 0.7L78.39 0.7Q77.99 0.95 77.69 1.15 77.39 1.35 77.29 1.45L77.29 1.45Q76.64 1.9 76.19 2.23 75.74 2.55 75.49 2.75L75.49 2.75Q74.49 3.45 73.84 3.45ZM84.89 1.05L84.89 1.05Q84.24 1.05 84.24-0.1L84.24-0.1Q84.24-1.05 84.69-1.95L84.69-1.95Q85.84-4.15 86.79-6.3L86.79-6.3Q87.44-7.6 88.01-8.8 88.59-10 89.09-11L89.09-11Q89.39-11.3 89.69-11.3L89.69-11.3Q90.34-11.3 90.09-10.7L90.09-10.7Q89.99-10.35 89.81-9.88 89.64-9.4 89.39-8.75L89.39-8.75Q88.59-6.65 88.44-5.8L88.44-5.8Q89.84-7.05 91.31-8.13 92.79-9.2 94.09-9.9 95.39-10.6 96.29-10.6L96.29-10.6Q97.09-10.6 97.09-9.95L97.09-9.95Q97.09-9.4 96.59-8.78 96.09-8.15 95.59-8.15L95.59-8.15Q95.34-8.15 95.19-8.3L95.19-8.3Q95.04-8.35 94.59-8.35L94.59-8.35Q92.99-8.35 91.24-6.8L91.24-6.8Q89.39-5.25 87.89-3.08 86.39-0.9 85.69 0.7L85.69 0.7Q85.34 1.05 84.89 1.05ZM97.58 0.55L97.58 0.55Q96.53 0.55 95.73 0L95.73 0Q94.43-1 94.43-3L94.43-3Q94.43-5 95.83-7.25 97.23-9.5 100.08-11.4L100.08-11.4Q100.58-11.75 101.43-11.75L101.43-11.75Q102.53-11.75 103.41-11.15 104.28-10.55 104.08-9.6L104.08-9.6Q103.73-8.05 102.56-6.85 101.38-5.65 99.81-4.73 98.23-3.8 96.58-2.95L96.58-2.95Q96.53-2.8 96.51-2.65 96.48-2.5 96.48-2.35L96.48-2.35Q96.48-1.65 96.96-1.13 97.43-0.6 98.28-0.6L98.28-0.6Q98.93-0.6 99.38-0.8L99.38-0.8Q100.18-1.1 100.71-1.35 101.23-1.6 101.93-2.1 102.63-2.6 103.83-3.6L103.83-3.6Q104.38-4 104.48-4L104.48-4Q104.78-4 104.68-3.55L104.68-3.55Q104.18-2.75 102.96-1.8 101.73-0.85 100.26-0.15 98.78 0.55 97.58 0.55ZM96.88-4.3L96.88-4.3Q97.28-4.3 98.53-5.1 99.78-5.9 100.88-6.85L100.88-6.85Q102.78-8.6 102.78-9.55L102.78-9.55Q102.78-9.8 102.63-10L102.63-10Q102.48-10.25 102.18-10.25L102.18-10.25Q101.23-10.25 98.98-8L98.98-8Q97.43-6.5 96.88-4.3ZM103.33 3.55L103.33 3.55Q103.28 3.55 103.21 3.58 103.13 3.6 103.03 3.6L103.03 3.6Q102.48 3.6 102.48 3.05L102.48 3.05Q102.48 2.7 102.76 2.08 103.03 1.45 103.38 0.83 103.73 0.2 103.83 0L103.83 0Q104.38-0.95 104.71-1.55 105.03-2.15 105.13-2.45L105.13-2.45 106.33-5.3 105.78-5.65Q105.53-5.8 105.41-5.95 105.28-6.1 105.23-6.15L105.23-6.15 105.13-6.35Q105.13-6.65 105.88-6.85L105.88-6.85Q106.18-7.05 107.38-7.35L107.38-7.35 109.13-11 110.03-13.25Q112.03-18.25 113.86-21.48 115.68-24.7 118.13-25.85L118.13-25.85 118.18-25.85Q118.38-25.85 118.73-25.65 119.08-25.45 119.18-25.15L119.18-25.15Q119.23-24.95 119.26-24.73 119.28-24.5 119.28-24.25L119.28-24.25Q119.28-23.2 118.81-21.68 118.33-20.15 117.23-18.45L117.23-18.45Q116.23-16.95 114.71-15.18 113.18-13.4 111.13-11.35L111.13-11.35Q110.18-9.65 109.33-7.9L109.33-7.9Q110.68-8.3 112.48-9.1L112.48-9.1Q113.28-9.35 114.18-9.7 115.08-10.05 116.08-10.55L116.08-10.55Q116.33-10.65 116.63-10.8 116.93-10.95 117.23-11.1L117.23-11.1 118.93-11.85 119.48-11.9Q119.73-11.9 119.58-11.7L119.58-11.7Q119.43-11.4 118.43-10.75 117.43-10.1 116.38-9.55L116.38-9.55 113.58-8.3Q112.63-7.9 112.08-7.65 111.53-7.4 111.33-7.3L111.33-7.3Q110.98-6.85 110.71-6.43 110.43-6 110.23-5.6L110.23-5.6Q110.48-4.5 112.93-2.6L112.93-2.6Q113.93-1.8 114.33-1.45 114.73-1.1 114.63-1.2L114.63-1.2Q115.38-0.65 115.48-0.3L115.48-0.3 115.53-0.1 115.53-0.05Q115.53 0.2 115.08-0.05L115.08-0.05Q114.63-0.15 113.88-0.55L113.88-0.55 112.03-1.5Q110.88-2.1 110.21-2.5 109.53-2.9 108.98-3.3 108.43-3.7 107.58-4.3L107.58-4.3Q106.48-1.85 105.63 0.05L105.63 0.05Q105.58 0.2 105.56 0.28 105.53 0.35 105.53 0.4L105.53 0.4Q105.53 0.55 105.83 0.65L105.83 0.65Q106.13 0.7 106.18 0.85L106.18 0.85Q106.23 1.05 106.26 1.18 106.28 1.3 106.28 1.35L106.28 1.35Q106.28 2.2 105.36 2.8 104.43 3.4 103.33 3.55ZM111.38-13.4L111.38-13.4Q111.53-13.3 112.13-13.88 112.73-14.45 113.51-15.38 114.28-16.3 115.06-17.32 115.83-18.35 116.28-19.15L116.28-19.15Q117.03-20.45 117.53-21.68 118.03-22.9 118.03-23.55L118.03-23.55Q118.03-24.15 117.58-24.15L117.58-24.15Q117.03-24.15 116.18-23.15 115.33-22.15 114.51-20.7 113.68-19.25 113.08-17.95L113.08-17.95Q112.73-17.15 112.36-16.15 111.98-15.15 111.73-14.38 111.48-13.6 111.38-13.4ZM116.13 3.55L116.13 3.55Q116.08 3.55 116 3.58 115.93 3.6 115.83 3.6L115.83 3.6Q115.28 3.6 115.28 3.05L115.28 3.05Q115.28 2.7 115.55 2.08 115.83 1.45 116.18 0.83 116.53 0.2 116.63 0L116.63 0Q117.18-0.95 117.5-1.55 117.83-2.15 117.93-2.45L117.93-2.45 119.13-5.3 118.58-5.65Q118.33-5.8 118.2-5.95 118.08-6.1 118.03-6.15L118.03-6.15 117.93-6.35Q117.93-6.65 118.68-6.85L118.68-6.85Q118.98-7.05 120.18-7.35L120.18-7.35 121.93-11 122.83-13.25Q124.83-18.25 126.65-21.48 128.48-24.7 130.93-25.85L130.93-25.85 130.98-25.85Q131.18-25.85 131.53-25.65 131.88-25.45 131.98-25.15L131.98-25.15Q132.03-24.95 132.05-24.73 132.08-24.5 132.08-24.25L132.08-24.25Q132.08-23.2 131.6-21.68 131.13-20.15 130.03-18.45L130.03-18.45Q129.03-16.95 127.5-15.18 125.98-13.4 123.93-11.35L123.93-11.35Q122.98-9.65 122.13-7.9L122.13-7.9Q123.48-8.3 125.28-9.1L125.28-9.1Q126.08-9.35 126.98-9.7 127.88-10.05 128.88-10.55L128.88-10.55Q129.13-10.65 129.43-10.8 129.73-10.95 130.03-11.1L130.03-11.1 131.73-11.85 132.28-11.9Q132.53-11.9 132.38-11.7L132.38-11.7Q132.23-11.4 131.23-10.75 130.23-10.1 129.18-9.55L129.18-9.55 126.38-8.3Q125.43-7.9 124.88-7.65 124.33-7.4 124.13-7.3L124.13-7.3Q123.78-6.85 123.5-6.43 123.23-6 123.03-5.6L123.03-5.6Q123.28-4.5 125.73-2.6L125.73-2.6Q126.73-1.8 127.13-1.45 127.53-1.1 127.43-1.2L127.43-1.2Q128.18-0.65 128.28-0.3L128.28-0.3 128.33-0.1 128.33-0.05Q128.33 0.2 127.88-0.05L127.88-0.05Q127.43-0.15 126.68-0.55L126.68-0.55 124.83-1.5Q123.68-2.1 123-2.5 122.33-2.9 121.78-3.3 121.23-3.7 120.38-4.3L120.38-4.3Q119.28-1.85 118.43 0.05L118.43 0.05Q118.38 0.2 118.35 0.28 118.33 0.35 118.33 0.4L118.33 0.4Q118.33 0.55 118.63 0.65L118.63 0.65Q118.93 0.7 118.98 0.85L118.98 0.85Q119.03 1.05 119.05 1.18 119.08 1.3 119.08 1.35L119.08 1.35Q119.08 2.2 118.15 2.8 117.23 3.4 116.13 3.55ZM124.18-13.4L124.18-13.4Q124.33-13.3 124.93-13.88 125.53-14.45 126.3-15.38 127.08-16.3 127.85-17.32 128.63-18.35 129.08-19.15L129.08-19.15Q129.83-20.45 130.33-21.68 130.83-22.9 130.83-23.55L130.83-23.55Q130.83-24.15 130.38-24.15L130.38-24.15Q129.83-24.15 128.98-23.15 128.13-22.15 127.3-20.7 126.48-19.25 125.88-17.95L125.88-17.95Q125.53-17.15 125.15-16.15 124.78-15.15 124.53-14.38 124.28-13.6 124.18-13.4ZM133.08 0.55L133.08 0.55Q132.03 0.55 131.23 0L131.23 0Q129.93-1 129.93-3L129.93-3Q129.93-5 131.33-7.25 132.73-9.5 135.58-11.4L135.58-11.4Q136.08-11.75 136.93-11.75L136.93-11.75Q138.03-11.75 138.9-11.15 139.78-10.55 139.58-9.6L139.58-9.6Q139.23-8.05 138.05-6.85 136.88-5.65 135.3-4.73 133.73-3.8 132.08-2.95L132.08-2.95Q132.03-2.8 132-2.65 131.98-2.5 131.98-2.35L131.98-2.35Q131.98-1.65 132.45-1.13 132.93-0.6 133.78-0.6L133.78-0.6Q134.43-0.6 134.88-0.8L134.88-0.8Q135.68-1.1 136.2-1.35 136.73-1.6 137.43-2.1 138.13-2.6 139.33-3.6L139.33-3.6Q139.88-4 139.98-4L139.98-4Q140.28-4 140.18-3.55L140.18-3.55Q139.68-2.75 138.45-1.8 137.23-0.85 135.75-0.15 134.28 0.55 133.08 0.55ZM132.38-4.3L132.38-4.3Q132.78-4.3 134.03-5.1 135.28-5.9 136.38-6.85L136.38-6.85Q138.28-8.6 138.28-9.55L138.28-9.55Q138.28-9.8 138.13-10L138.13-10Q137.98-10.25 137.68-10.25L137.68-10.25Q136.73-10.25 134.48-8L134.48-8Q132.93-6.5 132.38-4.3ZM140.12 1.05L140.12 1.05Q139.47 1.05 139.47-0.1L139.47-0.1Q139.47-1.05 139.92-1.95L139.92-1.95Q141.07-4.15 142.02-6.3L142.02-6.3Q142.67-7.6 143.25-8.8 143.82-10 144.32-11L144.32-11Q144.62-11.3 144.92-11.3L144.92-11.3Q145.57-11.3 145.32-10.7L145.32-10.7Q145.22-10.35 145.05-9.88 144.87-9.4 144.62-8.75L144.62-8.75Q143.82-6.65 143.67-5.8L143.67-5.8Q145.07-7.05 146.55-8.13 148.02-9.2 149.32-9.9 150.62-10.6 151.52-10.6L151.52-10.6Q152.32-10.6 152.32-9.95L152.32-9.95Q152.32-9.4 151.82-8.78 151.32-8.15 150.82-8.15L150.82-8.15Q150.57-8.15 150.42-8.3L150.42-8.3Q150.27-8.35 149.82-8.35L149.82-8.35Q148.22-8.35 146.47-6.8L146.47-6.8Q144.62-5.25 143.12-3.08 141.62-0.9 140.92 0.7L140.92 0.7Q140.57 1.05 140.12 1.05Z" opacity="1" transform="matrix(1,0,0,1,0,0)" fill="white" class="wordmark-text-0" id="SvgjsPath1127"></path></svg></g></svg></g></svg></g></svg></g><g transform="matrix(1,0,0,1,120.07825655172414,0)"><svg viewBox="0 0 155.3634868965517 155.36348689655173" height="155.36348689655173" width="155.3634868965517"><g><svg></svg></g><g id="SvgjsG1126"><svg viewBox="0 0 155.3634868965517 155.36348689655173" height="155.36348689655173" width="155.3634868965517"><g><path transform="scale(1.55363,1.55363)" d="M30 100c-16.569 0-30-13.431-30-30v-40c0-16.569 13.431-30 30-30h40c16.569 0 30 13.431 30 30v40c0 16.569-13.431 30-30 30z" fill="black" fill-rule="nonzero" stroke="none" stroke-width="1" stroke-linecap="butt" stroke-linejoin="miter" stroke-miterlimit="10" stroke-dasharray="" stroke-dashoffset="0" font-family="none" font-weight="none" font-size="none" text-anchor="none" style="mix-blend-mode: normal"></path></g><g transform="matrix(1,0,0,1,31.072697379310334,40.67154125266099)"><svg viewBox="0 0 93.21809213793104 74.02040439122976" height="74.02040439122976" width="93.21809213793104"><g><svg xmlns="http://www.w3.org/2000/svg" xmlns:xlink="http://www.w3.org/1999/xlink" version="1.1" x="0" y="0" viewBox="2.635999999999997 11.36 84.727 67.278" enable-background="new 0 0 90 90" xml:space="preserve" height="74.02040439122976" width="93.21809213793104" class="icon-cg-0" data-fill-palette-color="quaternary" id="SvgjsSvg1125"><path d="M65.488 65.37c-0.571 0.471-1.272 0.724-1.988 0.741-0.424 0.009-0.85-0.063-1.255-0.223-0.492-0.195-0.905-0.517-1.24-0.899-3.28 4.264-7.92 7.411-13.282 8.8 2.99-2.082 5.463-5.671 7.121-10.209h5.453c-0.021-0.096-0.063-0.182-0.074-0.279l-0.285-2.165H55.63c0.841-2.991 1.343-6.308 1.438-9.836h1.574l-0.322-2.444h-1.252c-0.045-1.637-0.187-3.225-0.396-4.757-0.779 0.217-1.588 0.431-2.39 0.645 0.174 1.336 0.302 2.7 0.344 4.112h-8.61L45.52 51.3h9.105c-0.104 3.541-0.639 6.884-1.537 9.836H42.795v-5.401l-1.252 0.875c-0.363 0.257-0.772 0.399-1.192 0.486v4.04H30.058c-0.439-1.446-0.79-2.989-1.047-4.6-0.267 0.108-0.542 0.217-0.804 0.329-0.524 0.223-0.992 0.445-1.49 0.668 0.219 1.238 0.477 2.451 0.798 3.603h-7.807v-0.002c-0.703 0.429-1.374 0.857-1.996 1.292-0.491 0.346-0.938 0.686-1.361 1.023 4.805 9.025 14.303 15.189 25.221 15.189 10.239 0 19.208-5.433 24.25-13.549L65.488 65.37zM21.114 63.58h7.188c1.661 4.538 4.13 8.127 7.121 10.209C29.482 72.252 24.412 68.564 21.114 63.58zM40.351 73.266c-3.883-0.645-7.27-4.322-9.421-9.686h9.421V73.266zM42.795 63.58h9.421c-2.149 5.361-5.54 9.041-9.421 9.686V63.58z" fill="black"></path><path d="M87.363 24.459c-3.995-2.627-12.348-0.773-21.615 2.803L49.466 11.36l-5.485 0.188L57.07 30.955c-5.385 2.476-10.719 5.232-15.396 7.779l-6.756-5.102-2.806 0.327 6.977 8.789 0.601 11.208 2.317-1.617 1.677-8.297c5.19-1.188 11.015-2.66 16.687-4.372l3.053 23.206 4.232-3.495 1.654-22.695C78.628 33.219 86.111 29.072 87.363 24.459z" fill="black"></path><path d="M48.527 24.071l-1.348-1.999c-1.819-0.362-3.688-0.56-5.61-0.56-14.262 0-26.082 10.519-28.192 24.199 1.755-1.324 3.46-2.488 5.021-3.501 0.37-1.097 0.789-2.173 1.308-3.194h3.933c1.418-0.817 2.874-1.633 4.406-2.444h-6.933c3.296-4.984 8.368-8.671 14.31-10.209-1.592 1.11-3.032 2.657-4.287 4.538 0.197-0.063 0.393-0.13 0.604-0.153l2.806-0.327c0.017-0.001 0.037 0 0.052-0.001 1.697-1.917 3.647-3.184 5.752-3.532v6.794l1.615 1.221c0.282-0.151 0.549-0.284 0.829-0.435v-7.58c2.373 0.393 4.56 1.933 6.396 4.285l3.166-1.505L48.527 24.071z" fill="black"></path><path d="M35.919 43.951l-4.397-5.538c-2.987 1.531-6.322 3.345-9.807 5.517-3.892 2.446-7.978 5.27-11.725 8.869-1.86 1.813-3.648 3.828-5.098 6.258-0.717 1.217-1.339 2.549-1.767 3.991-0.115 0.353-0.192 0.733-0.28 1.101-0.047 0.183-0.069 0.375-0.104 0.563l-0.102 0.681-0.003 0.832 0.023 1.226c0.107 1.477 0.501 3.049 1.285 4.42 0.766 1.383 1.916 2.446 3.06 3.128 2.327 1.363 4.509 1.586 6.388 1.697 3.773 0.115 6.669-0.5 8.695-0.902 0.631-0.134 1.162-0.256 1.612-0.361-5.88-0.309-9.543-1.719-11.51-2.787-0.562-0.285-1.083-0.605-1.528-0.977-0.205-0.159-0.317-0.263-0.317-0.263l0.038-0.003c-0.121-0.115-0.262-0.223-0.364-0.346-0.886-1.059-0.909-2.021-0.595-3.401 0.054-0.142 0.101-0.271 0.14-0.405l0.239-0.799 0.008-0.023c0.022-0.125-0.022 0.141-0.016 0.106l0.013-0.028 0.022-0.063 0.044-0.121c0.033-0.079 0.051-0.159 0.092-0.242 0.079-0.163 0.133-0.326 0.228-0.491 0.332-0.663 0.786-1.338 1.348-2.008 1.127-1.343 2.652-2.629 4.323-3.804 3.372-2.351 7.309-4.276 11.085-5.885 3.284-1.394 6.455-2.523 9.317-3.473L35.919 43.951z" fill="black"></path></svg></g></svg></g></svg></g></svg></g><g></g></svg></g><defs><mask></mask></defs></svg><rect width="332.19550318819887" height="247.2" fill="black" stroke="none" visibility="hidden"></rect></g></mask><linearGradient x1="0" x2="1" y1="0.578" y2="0.595" id="2b7bb13b-33ba-45e7-85b2-286a7ec33178"><stop stop-color="#dede50" offset="0"></stop><stop stop-color="#559c49" offset="1"></stop></linearGradient><rect width="332.19550318819887" height="247.2" fill="url(#2b7bb13b-33ba-45e7-85b2-286a7ec33178)" mask="url(#f1eaf404-dd6d-42e3-81ad-065e6301282d)" data-fill-palette-color="primary"></rect><mask id="7aaf874d-15db-4312-af3a-71a373f99445"><g id="SvgjsG1141"><svg viewBox="0 0 332.19550318819887 247.2" height="247.2" width="332.19550318819887"><g><svg viewBox="0 0 395.52 294.32229835034485" height="247.2" width="332.19550318819887"><g transform="matrix(1,0,0,1,0,181.90298800551724)"><svg viewBox="0 0 395.52 112.4193103448276" height="112.4193103448276" width="395.52"><g id="SvgjsG1140"><svg viewBox="0 0 395.52 112.4193103448276" height="112.4193103448276" width="395.52" id="SvgjsSvg1139"><g><svg viewBox="0 0 395.52 112.4193103448276" height="112.4193103448276" width="395.52"><g transform="matrix(1,0,0,1,0,0)"><svg width="395.52" viewBox="3 -30.75 149.32 42.45" height="112.4193103448276" data-palette-color="url(#2b7bb13b-33ba-45e7-85b2-286a7ec33178)"></svg></g></svg></g></svg></g></svg></g><g transform="matrix(1,0,0,1,120.07825655172414,0)"><svg viewBox="0 0 155.3634868965517 155.36348689655173" height="155.36348689655173" width="155.3634868965517"><g><svg></svg></g><g id="SvgjsG1138"><svg viewBox="0 0 155.3634868965517 155.36348689655173" height="155.36348689655173" width="155.3634868965517"><g><path transform="scale(1.55363,1.55363)" d="M30 100c-16.569 0-30-13.431-30-30v-40c0-16.569 13.431-30 30-30h40c16.569 0 30 13.431 30 30v40c0 16.569-13.431 30-30 30z" fill="white" fill-rule="nonzero" stroke="none" stroke-width="1" stroke-linecap="butt" stroke-linejoin="miter" stroke-miterlimit="10" stroke-dasharray="" stroke-dashoffset="0" font-family="none" font-weight="none" font-size="none" text-anchor="none" style="mix-blend-mode: normal"></path></g><g transform="matrix(1,0,0,1,31.072697379310334,40.67154125266099)"><svg viewBox="0 0 93.21809213793104 74.02040439122976" height="74.02040439122976" width="93.21809213793104"><g><svg xmlns="http://www.w3.org/2000/svg" xmlns:xlink="http://www.w3.org/1999/xlink" version="1.1" x="0" y="0" viewBox="2.635999999999997 11.36 84.727 67.278" enable-background="new 0 0 90 90" xml:space="preserve" height="74.02040439122976" width="93.21809213793104" class="icon-cg-0" data-fill-palette-color="quaternary" id="SvgjsSvg1137"><path d="M65.488 65.37c-0.571 0.471-1.272 0.724-1.988 0.741-0.424 0.009-0.85-0.063-1.255-0.223-0.492-0.195-0.905-0.517-1.24-0.899-3.28 4.264-7.92 7.411-13.282 8.8 2.99-2.082 5.463-5.671 7.121-10.209h5.453c-0.021-0.096-0.063-0.182-0.074-0.279l-0.285-2.165H55.63c0.841-2.991 1.343-6.308 1.438-9.836h1.574l-0.322-2.444h-1.252c-0.045-1.637-0.187-3.225-0.396-4.757-0.779 0.217-1.588 0.431-2.39 0.645 0.174 1.336 0.302 2.7 0.344 4.112h-8.61L45.52 51.3h9.105c-0.104 3.541-0.639 6.884-1.537 9.836H42.795v-5.401l-1.252 0.875c-0.363 0.257-0.772 0.399-1.192 0.486v4.04H30.058c-0.439-1.446-0.79-2.989-1.047-4.6-0.267 0.108-0.542 0.217-0.804 0.329-0.524 0.223-0.992 0.445-1.49 0.668 0.219 1.238 0.477 2.451 0.798 3.603h-7.807v-0.002c-0.703 0.429-1.374 0.857-1.996 1.292-0.491 0.346-0.938 0.686-1.361 1.023 4.805 9.025 14.303 15.189 25.221 15.189 10.239 0 19.208-5.433 24.25-13.549L65.488 65.37zM21.114 63.58h7.188c1.661 4.538 4.13 8.127 7.121 10.209C29.482 72.252 24.412 68.564 21.114 63.58zM40.351 73.266c-3.883-0.645-7.27-4.322-9.421-9.686h9.421V73.266zM42.795 63.58h9.421c-2.149 5.361-5.54 9.041-9.421 9.686V63.58z" fill="black"></path><path d="M87.363 24.459c-3.995-2.627-12.348-0.773-21.615 2.803L49.466 11.36l-5.485 0.188L57.07 30.955c-5.385 2.476-10.719 5.232-15.396 7.779l-6.756-5.102-2.806 0.327 6.977 8.789 0.601 11.208 2.317-1.617 1.677-8.297c5.19-1.188 11.015-2.66 16.687-4.372l3.053 23.206 4.232-3.495 1.654-22.695C78.628 33.219 86.111 29.072 87.363 24.459z" fill="black"></path><path d="M48.527 24.071l-1.348-1.999c-1.819-0.362-3.688-0.56-5.61-0.56-14.262 0-26.082 10.519-28.192 24.199 1.755-1.324 3.46-2.488 5.021-3.501 0.37-1.097 0.789-2.173 1.308-3.194h3.933c1.418-0.817 2.874-1.633 4.406-2.444h-6.933c3.296-4.984 8.368-8.671 14.31-10.209-1.592 1.11-3.032 2.657-4.287 4.538 0.197-0.063 0.393-0.13 0.604-0.153l2.806-0.327c0.017-0.001 0.037 0 0.052-0.001 1.697-1.917 3.647-3.184 5.752-3.532v6.794l1.615 1.221c0.282-0.151 0.549-0.284 0.829-0.435v-7.58c2.373 0.393 4.56 1.933 6.396 4.285l3.166-1.505L48.527 24.071z" fill="black"></path><path d="M35.919 43.951l-4.397-5.538c-2.987 1.531-6.322 3.345-9.807 5.517-3.892 2.446-7.978 5.27-11.725 8.869-1.86 1.813-3.648 3.828-5.098 6.258-0.717 1.217-1.339 2.549-1.767 3.991-0.115 0.353-0.192 0.733-0.28 1.101-0.047 0.183-0.069 0.375-0.104 0.563l-0.102 0.681-0.003 0.832 0.023 1.226c0.107 1.477 0.501 3.049 1.285 4.42 0.766 1.383 1.916 2.446 3.06 3.128 2.327 1.363 4.509 1.586 6.388 1.697 3.773 0.115 6.669-0.5 8.695-0.902 0.631-0.134 1.162-0.256 1.612-0.361-5.88-0.309-9.543-1.719-11.51-2.787-0.562-0.285-1.083-0.605-1.528-0.977-0.205-0.159-0.317-0.263-0.317-0.263l0.038-0.003c-0.121-0.115-0.262-0.223-0.364-0.346-0.886-1.059-0.909-2.021-0.595-3.401 0.054-0.142 0.101-0.271 0.14-0.405l0.239-0.799 0.008-0.023c0.022-0.125-0.022 0.141-0.016 0.106l0.013-0.028 0.022-0.063 0.044-0.121c0.033-0.079 0.051-0.159 0.092-0.242 0.079-0.163 0.133-0.326 0.228-0.491 0.332-0.663 0.786-1.338 1.348-2.008 1.127-1.343 2.652-2.629 4.323-3.804 3.372-2.351 7.309-4.276 11.085-5.885 3.284-1.394 6.455-2.523 9.317-3.473L35.919 43.951z" fill="black"></path></svg></g></svg></g></svg></g></svg></g><g></g></svg></g><defs><mask></mask></defs><mask><g id="SvgjsG1136"><svg viewBox="0 0 332.19550318819887 247.2" height="247.2" width="332.19550318819887"><g><svg viewBox="0 0 395.52 294.32229835034485" height="247.2" width="332.19550318819887"><g transform="matrix(1,0,0,1,0,181.90298800551724)"><svg viewBox="0 0 395.52 112.4193103448276" height="112.4193103448276" width="395.52"><g id="SvgjsG1135"><svg viewBox="0 0 395.52 112.4193103448276" height="112.4193103448276" width="395.52" id="SvgjsSvg1134"><g><svg viewBox="0 0 395.52 112.4193103448276" height="112.4193103448276" width="395.52"><g transform="matrix(1,0,0,1,0,0)"><svg width="395.52" viewBox="3 -30.75 149.32 42.45" height="112.4193103448276" data-palette-color="url(#2b7bb13b-33ba-45e7-85b2-286a7ec33178)"><path d="M5.3 11.7L5.3 11.7Q4.25 11.7 4.25 10.5L4.25 10.5Q4.25 9.5 4.85 8.15L4.85 8.15Q5.35 7.05 5.95 5.98 6.55 4.9 7.3 3.85L7.3 3.85Q9.8 0.45 12.2-2.3 14.6-5.05 17.3-7.53 20-10 23.3-12.4L23.3-12.4Q24-14 24.53-15.35 25.05-16.7 25.3-17.85L25.3-17.85Q25.1-17.65 24-16.57 22.9-15.5 20.9-13.6L20.9-13.6 17.8-10.7Q15.7-8.7 14.25-7.43 12.8-6.15 11.25-5L11.25-5Q7.7-2.35 5.45-2.35L5.45-2.35Q4.9-2.35 4.75-2.4L4.75-2.4Q3-2.8 3-4.95L3-4.95Q3-6.6 4-9.05L4-9.05Q5-11.5 6.73-14.23 8.45-16.95 10.3-19.2L10.3-19.2Q12.2-21.5 14.33-23.6 16.45-25.7 18.6-27.38 20.75-29.05 22.55-29.9L22.55-29.9Q24.35-30.75 26.4-30.75L26.4-30.75Q26.8-30.75 27.25-30.7 27.7-30.65 28.2-30.55L28.2-30.55Q29.3-30.3 30.05-29.43 30.8-28.55 30.8-27.3L30.8-27.3Q30.8-26.05 29.95-24.65L29.95-24.65Q29.55-24.05 28.9-23.58 28.25-23.1 27.75-23L27.75-23 27.6-23Q27.15-23 27.15-23.35L27.15-23.35 27.15-23.45Q27.15-24 27.7-24.8L27.7-24.8Q28.8-26.5 28.8-27.9L28.8-27.9Q28.8-29.3 27.45-29.3L27.45-29.3Q26.2-29.3 23.65-27.85L23.65-27.85Q21.85-26.85 19.83-25.33 17.8-23.8 15.83-22.05 13.85-20.3 12.2-18.5L12.2-18.5Q10.55-16.7 9.03-14.45 7.5-12.2 6.55-10.1L6.55-10.1Q5.5-7.8 5.5-6.4L5.5-6.4Q5.5-5.05 6.45-4.85L6.45-4.85Q6.7-4.8 6.9-4.78 7.1-4.75 7.2-4.75L7.2-4.75Q8.85-4.75 10.65-5.95 12.45-7.15 14.5-8.95L14.5-8.95Q16.7-11 18.68-12.98 20.65-14.95 22.3-16.9L22.3-16.9 24.5-19.5 25.4-20.55Q25.7-20.9 26.3-20.9L26.3-20.9Q26.9-20.9 27.38-20.58 27.85-20.25 27.8-19.8L27.8-19.8Q27.6-18.8 27.18-17.38 26.75-15.95 26.05-14.15L26.05-14.15Q27.05-14.7 27.83-15.13 28.6-15.55 29.15-15.8L29.15-15.8Q29.55-15.95 29.7-15.9L29.7-15.9Q29.85-15.9 29.85-15.75L29.85-15.75Q29.85-15.6 29.6-15.33 29.35-15.05 28.9-14.85L28.9-14.85Q28.35-14.55 27.48-13.95 26.6-13.35 25.35-12.5L25.35-12.5Q23.85-9.05 21.68-5.33 19.5-1.6 16.88 1.88 14.25 5.35 11.35 8.15L11.35 8.15Q10.5 8.95 9.38 9.78 8.25 10.6 7.18 11.15 6.1 11.7 5.3 11.7ZM8.05 8.65L8.05 8.65Q8.9 8.65 9.58 8.1 10.25 7.55 10.6 7.2L10.6 7.2Q13.5 4.4 16.55-0.25 19.6-4.9 22.25-10.2L22.25-10.2Q19.85-8.25 18.05-6.65 16.25-5.05 14.78-3.48 13.3-1.9 11.88-0.1 10.45 1.7 8.8 4L8.8 4Q7.75 5.4 7.3 7L7.3 7Q7.25 7.15 7.23 7.35 7.2 7.55 7.2 7.8L7.2 7.8Q7.2 8.65 8.05 8.65ZM25.3 3.3L25.3 3.3Q24.75 3.3 24.37 2.95 24 2.6 24.05 2.1L24.05 2.1Q24.15 0.05 24.82-1.85 25.5-3.75 26.8-6.4L26.8-6.4Q26.95-6.75 27.07-7.03 27.2-7.3 27.3-7.5L27.3-7.5Q28.4-9.85 29.55-12 30.7-14.15 31.85-16.2L31.85-16.2 32.55-17.45Q33.75-19.6 34.65-20.93 35.55-22.25 36.45-22.85L36.45-22.85Q37.6-23.55 37.85-23.55L37.85-23.55Q38.25-23.55 38.65-22.85L38.65-22.85Q38.9-22.35 37.65-20.4L37.65-20.4Q37-19.4 36.02-17.9 35.05-16.4 33.7-14.5L33.7-14.5Q33.45-14.15 32.87-13.28 32.3-12.4 31.35-11L31.35-11Q30.4-9.6 29.7-8.47 29-7.35 28.55-6.5L28.55-6.5Q27.65-4.85 26.85-2.98 26.05-1.1 26.05-0.05L26.05-0.05Q26.05 0.9 26.8 0.9L26.8 0.9Q28 0.9 30.65-1.15L30.65-1.15Q30.95-1.1 30.95-0.85L30.95-0.85Q30.95-0.65 30.45-0.15L30.45-0.15Q30 0.3 29.32 0.83 28.65 1.35 27.75 2.05L27.75 2.05 26.95 2.65Q26.15 3.3 25.3 3.3ZM34.49 0.85L34.49 0.85Q32.54 0.85 32.54-0.9L32.54-0.9Q32.54-1 32.57-1.25 32.59-1.5 32.64-1.85L32.64-1.85Q33.14-3.9 34.67-5.83 36.19-7.75 38.19-9.2L38.19-9.2Q38.94-9.8 40.59-9.8L40.59-9.8Q41.55-9.8 42.27-9.53 42.99-9.25 43.3-8.7L43.3-8.7Q43.59-8.2 43.59-7.55L43.59-7.55Q43.59-7.45 43.57-7.25 43.55-7.05 43.49-6.8L43.49-6.8Q43.59-6.85 43.82-6.85 44.05-6.85 44.39-6.9L44.39-6.9Q44.74-6.95 45.07-7 45.39-7.05 45.74-7.05L45.74-7.05 45.94-7.05Q46.49-7.05 46.07-6.63 45.64-6.2 44.94-6.1L44.94-6.1 43.24-5.9Q42.74-4.5 41.52-3.1 40.29-1.7 38.82-0.68 37.34 0.35 36.04 0.65L36.04 0.65Q35.29 0.85 34.49 0.85ZM40.89-6.6L40.89-6.6Q41.19-6.6 41.62-6.63 42.05-6.65 42.59-6.7L42.59-6.7Q42.64-6.8 42.64-7.15L42.64-7.15Q42.64-8.05 41.89-8.4L41.89-8.4Q41.49-8.65 40.89-8.65L40.89-8.65Q40.14-8.65 39.37-8.18 38.59-7.7 37.74-6.95L37.74-6.95Q38.79-6.6 40.89-6.6ZM35.99-0.9L35.99-0.9Q36.49-0.9 37.42-1.38 38.34-1.85 39.34-2.65 40.34-3.45 41.14-4.35L41.14-4.35Q41.39-4.6 41.64-4.98 41.89-5.35 42.19-5.75L42.19-5.75 40.99-5.6Q38.19-5.2 35.99-5.15L35.99-5.15Q34.89-3.35 34.64-2.15L34.64-2.15Q34.59-1.5 34.99-1.2 35.39-0.9 35.99-0.9ZM44.74 2.25L44.74 2.25Q43.59 2.25 43.59 1L43.59 1Q43.59 0.05 44.09-1L44.09-1 47.64-8.75Q48.04-9.6 48.74-11.03 49.44-12.45 50.44-14.5L50.44-14.5Q50.54-14.7 50.67-14.95 50.79-15.2 50.94-15.45L50.94-15.45Q51.24-16 51.54-16.65L51.54-16.65 52.14-17.9Q53.09-19.9 53.82-21.08 54.54-22.25 55.44-22.85L55.44-22.85Q56.59-23.55 56.89-23.55L56.89-23.55Q57.24-23.55 57.64-22.85L57.64-22.85Q57.64-22.8 57.67-22.8 57.69-22.8 57.69-22.75L57.69-22.75Q57.69-22.45 57.24-21.75L57.24-21.75Q56.94-21.3 56.42-20.53 55.89-19.75 55.14-18.65L55.14-18.65Q52.39-14.7 50.47-11.5 48.54-8.3 47.24-5.05L47.24-5.05Q48.49-6.15 49.92-7.25 51.34-8.35 52.34-8.95L52.34-8.95Q53.74-9.75 54.79-9.75L54.79-9.75Q56.39-9.75 56.39-7.65L56.39-7.65Q56.39-5.35 55.04-3.48 53.69-1.6 51.32-0.23 48.94 1.15 45.94 2L45.94 2Q45.29 2.25 44.74 2.25ZM45.89 0.4L46.49 0.45Q48.34 0.45 50.19-0.8L50.19-0.8Q52.04-2 53.22-3.73 54.39-5.45 54.39-6.8L54.39-6.8Q54.39-7.65 53.84-8.2L53.84-8.2Q53.39-8.3 52.09-7.58 50.79-6.85 49.32-5.68 47.84-4.5 46.69-3.25L46.69-3.25Q45.69-0.2 45.89 0.4L45.89 0.4ZM59.64 0.55L59.64 0.55Q58.59 0.55 57.79 0L57.79 0Q56.49-1 56.49-3L56.49-3Q56.49-5 57.89-7.25 59.29-9.5 62.14-11.4L62.14-11.4Q62.64-11.75 63.49-11.75L63.49-11.75Q64.59-11.75 65.47-11.15 66.34-10.55 66.14-9.6L66.14-9.6Q65.79-8.05 64.61-6.85 63.44-5.65 61.87-4.73 60.29-3.8 58.64-2.95L58.64-2.95Q58.59-2.8 58.56-2.65 58.54-2.5 58.54-2.35L58.54-2.35Q58.54-1.65 59.02-1.13 59.49-0.6 60.34-0.6L60.34-0.6Q60.99-0.6 61.44-0.8L61.44-0.8Q62.24-1.1 62.77-1.35 63.29-1.6 63.99-2.1 64.69-2.6 65.89-3.6L65.89-3.6Q66.44-4 66.54-4L66.54-4Q66.84-4 66.74-3.55L66.74-3.55Q66.24-2.75 65.02-1.8 63.79-0.85 62.31-0.15 60.84 0.55 59.64 0.55ZM58.94-4.3L58.94-4.3Q59.34-4.3 60.59-5.1 61.84-5.9 62.94-6.85L62.94-6.85Q64.84-8.6 64.84-9.55L64.84-9.55Q64.84-9.8 64.69-10L64.69-10Q64.54-10.25 64.24-10.25L64.24-10.25Q63.29-10.25 61.04-8L61.04-8Q59.49-6.5 58.94-4.3ZM72.89-14.1L72.89-14.1Q72.39-14.1 71.79-14.35L71.79-14.35Q70.39-14.75 68.94-16.05L68.94-16.05Q67.39-17.4 66.29-19.28 65.19-21.15 64.99-22.95L64.99-22.95Q64.94-23.15 64.94-23.45 64.94-23.75 64.94-24.15L64.94-24.15Q64.94-30.65 72.94-30.65L72.94-30.65Q76.99-30.65 81.86-29.35 86.74-28.05 93.09-25.9L93.09-25.9Q94.24-25.5 95.21-25.18 96.19-24.85 96.99-24.6L96.99-24.6Q98.94-24.05 100.39-24.05L100.39-24.05Q102.04-24.05 102.76-24.7 103.49-25.35 103.49-26.15L103.49-26.15 103.49-26.35Q103.49-26.95 103.84-26.95L103.84-26.95Q104.24-26.95 104.69-26.35L104.69-26.35Q104.79-26.25 104.79-25.95L104.79-25.95Q104.79-24.8 103.44-23.8 102.09-22.8 100.09-22.8L100.09-22.8Q99.79-22.8 99.56-22.8 99.34-22.8 99.14-22.85L99.14-22.85Q97.19-23.1 94.86-23.78 92.54-24.45 89.14-25.6L89.14-25.6Q84.39-27.2 81.24-28.05 78.09-28.9 75.39-28.9L75.39-28.9Q72.44-28.9 70.41-27.6 68.39-26.3 67.44-23.35L67.44-23.35Q67.29-22.9 67.29-22.35L67.29-22.35Q67.29-21.4 67.74-20.23 68.19-19.05 68.94-17.95 69.69-16.85 70.54-16.07 71.39-15.3 72.14-15.15L72.14-15.15Q73.34-14.9 73.34-14.35L73.34-14.35Q73.34-14.1 72.89-14.1ZM73.84 3.45L73.84 3.45Q72.69 3.45 72.79 1.95L72.79 1.95Q73.19-1.2 74.79-4.8L74.79-4.8Q75.59-6.65 77.11-9.58 78.64-12.5 80.89-16.45L80.89-16.45Q82.44-19.25 83.41-20.8 84.39-22.35 85.49-23.1L85.49-23.1Q86.44-23.75 87.29-23.75L87.29-23.75Q88.09-23.75 87.69-23.1L87.69-23.1Q86.89-22 85.76-20.33 84.64-18.65 83.19-16.4L83.19-16.4Q81.29-13.4 79.49-10.3 77.69-7.2 76.44-4.63 75.19-2.05 74.79-0.5L74.79-0.5Q74.64 0.1 74.64 0.5L74.64 0.5Q74.64 1.35 75.34 1.35L75.34 1.35Q76.44 1.35 79.34-0.9L79.34-0.9Q79.44-1 79.59-1L79.59-1Q79.79-1 79.79-0.75L79.79-0.75Q79.79-0.45 79.59-0.25L79.59-0.25Q79.39-0.05 79.09 0.18 78.79 0.4 78.39 0.7L78.39 0.7Q77.99 0.95 77.69 1.15 77.39 1.35 77.29 1.45L77.29 1.45Q76.64 1.9 76.19 2.23 75.74 2.55 75.49 2.75L75.49 2.75Q74.49 3.45 73.84 3.45ZM84.89 1.05L84.89 1.05Q84.24 1.05 84.24-0.1L84.24-0.1Q84.24-1.05 84.69-1.95L84.69-1.95Q85.84-4.15 86.79-6.3L86.79-6.3Q87.44-7.6 88.01-8.8 88.59-10 89.09-11L89.09-11Q89.39-11.3 89.69-11.3L89.69-11.3Q90.34-11.3 90.09-10.7L90.09-10.7Q89.99-10.35 89.81-9.88 89.64-9.4 89.39-8.75L89.39-8.75Q88.59-6.65 88.44-5.8L88.44-5.8Q89.84-7.05 91.31-8.13 92.79-9.2 94.09-9.9 95.39-10.6 96.29-10.6L96.29-10.6Q97.09-10.6 97.09-9.95L97.09-9.95Q97.09-9.4 96.59-8.78 96.09-8.15 95.59-8.15L95.59-8.15Q95.34-8.15 95.19-8.3L95.19-8.3Q95.04-8.35 94.59-8.35L94.59-8.35Q92.99-8.35 91.24-6.8L91.24-6.8Q89.39-5.25 87.89-3.08 86.39-0.9 85.69 0.7L85.69 0.7Q85.34 1.05 84.89 1.05ZM97.58 0.55L97.58 0.55Q96.53 0.55 95.73 0L95.73 0Q94.43-1 94.43-3L94.43-3Q94.43-5 95.83-7.25 97.23-9.5 100.08-11.4L100.08-11.4Q100.58-11.75 101.43-11.75L101.43-11.75Q102.53-11.75 103.41-11.15 104.28-10.55 104.08-9.6L104.08-9.6Q103.73-8.05 102.56-6.85 101.38-5.65 99.81-4.73 98.23-3.8 96.58-2.95L96.58-2.95Q96.53-2.8 96.51-2.65 96.48-2.5 96.48-2.35L96.48-2.35Q96.48-1.65 96.96-1.13 97.43-0.6 98.28-0.6L98.28-0.6Q98.93-0.6 99.38-0.8L99.38-0.8Q100.18-1.1 100.71-1.35 101.23-1.6 101.93-2.1 102.63-2.6 103.83-3.6L103.83-3.6Q104.38-4 104.48-4L104.48-4Q104.78-4 104.68-3.55L104.68-3.55Q104.18-2.75 102.96-1.8 101.73-0.85 100.26-0.15 98.78 0.55 97.58 0.55ZM96.88-4.3L96.88-4.3Q97.28-4.3 98.53-5.1 99.78-5.9 100.88-6.85L100.88-6.85Q102.78-8.6 102.78-9.55L102.78-9.55Q102.78-9.8 102.63-10L102.63-10Q102.48-10.25 102.18-10.25L102.18-10.25Q101.23-10.25 98.98-8L98.98-8Q97.43-6.5 96.88-4.3ZM103.33 3.55L103.33 3.55Q103.28 3.55 103.21 3.58 103.13 3.6 103.03 3.6L103.03 3.6Q102.48 3.6 102.48 3.05L102.48 3.05Q102.48 2.7 102.76 2.08 103.03 1.45 103.38 0.83 103.73 0.2 103.83 0L103.83 0Q104.38-0.95 104.71-1.55 105.03-2.15 105.13-2.45L105.13-2.45 106.33-5.3 105.78-5.65Q105.53-5.8 105.41-5.95 105.28-6.1 105.23-6.15L105.23-6.15 105.13-6.35Q105.13-6.65 105.88-6.85L105.88-6.85Q106.18-7.05 107.38-7.35L107.38-7.35 109.13-11 110.03-13.25Q112.03-18.25 113.86-21.48 115.68-24.7 118.13-25.85L118.13-25.85 118.18-25.85Q118.38-25.85 118.73-25.65 119.08-25.45 119.18-25.15L119.18-25.15Q119.23-24.95 119.26-24.73 119.28-24.5 119.28-24.25L119.28-24.25Q119.28-23.2 118.81-21.68 118.33-20.15 117.23-18.45L117.23-18.45Q116.23-16.95 114.71-15.18 113.18-13.4 111.13-11.35L111.13-11.35Q110.18-9.65 109.33-7.9L109.33-7.9Q110.68-8.3 112.48-9.1L112.48-9.1Q113.28-9.35 114.18-9.7 115.08-10.05 116.08-10.55L116.08-10.55Q116.33-10.65 116.63-10.8 116.93-10.95 117.23-11.1L117.23-11.1 118.93-11.85 119.48-11.9Q119.73-11.9 119.58-11.7L119.58-11.7Q119.43-11.4 118.43-10.75 117.43-10.1 116.38-9.55L116.38-9.55 113.58-8.3Q112.63-7.9 112.08-7.65 111.53-7.4 111.33-7.3L111.33-7.3Q110.98-6.85 110.71-6.43 110.43-6 110.23-5.6L110.23-5.6Q110.48-4.5 112.93-2.6L112.93-2.6Q113.93-1.8 114.33-1.45 114.73-1.1 114.63-1.2L114.63-1.2Q115.38-0.65 115.48-0.3L115.48-0.3 115.53-0.1 115.53-0.05Q115.53 0.2 115.08-0.05L115.08-0.05Q114.63-0.15 113.88-0.55L113.88-0.55 112.03-1.5Q110.88-2.1 110.21-2.5 109.53-2.9 108.98-3.3 108.43-3.7 107.58-4.3L107.58-4.3Q106.48-1.85 105.63 0.05L105.63 0.05Q105.58 0.2 105.56 0.28 105.53 0.35 105.53 0.4L105.53 0.4Q105.53 0.55 105.83 0.65L105.83 0.65Q106.13 0.7 106.18 0.85L106.18 0.85Q106.23 1.05 106.26 1.18 106.28 1.3 106.28 1.35L106.28 1.35Q106.28 2.2 105.36 2.8 104.43 3.4 103.33 3.55ZM111.38-13.4L111.38-13.4Q111.53-13.3 112.13-13.88 112.73-14.45 113.51-15.38 114.28-16.3 115.06-17.32 115.83-18.35 116.28-19.15L116.28-19.15Q117.03-20.45 117.53-21.68 118.03-22.9 118.03-23.55L118.03-23.55Q118.03-24.15 117.58-24.15L117.58-24.15Q117.03-24.15 116.18-23.15 115.33-22.15 114.51-20.7 113.68-19.25 113.08-17.95L113.08-17.95Q112.73-17.15 112.36-16.15 111.98-15.15 111.73-14.38 111.48-13.6 111.38-13.4ZM116.13 3.55L116.13 3.55Q116.08 3.55 116 3.58 115.93 3.6 115.83 3.6L115.83 3.6Q115.28 3.6 115.28 3.05L115.28 3.05Q115.28 2.7 115.55 2.08 115.83 1.45 116.18 0.83 116.53 0.2 116.63 0L116.63 0Q117.18-0.95 117.5-1.55 117.83-2.15 117.93-2.45L117.93-2.45 119.13-5.3 118.58-5.65Q118.33-5.8 118.2-5.95 118.08-6.1 118.03-6.15L118.03-6.15 117.93-6.35Q117.93-6.65 118.68-6.85L118.68-6.85Q118.98-7.05 120.18-7.35L120.18-7.35 121.93-11 122.83-13.25Q124.83-18.25 126.65-21.48 128.48-24.7 130.93-25.85L130.93-25.85 130.98-25.85Q131.18-25.85 131.53-25.65 131.88-25.45 131.98-25.15L131.98-25.15Q132.03-24.95 132.05-24.73 132.08-24.5 132.08-24.25L132.08-24.25Q132.08-23.2 131.6-21.68 131.13-20.15 130.03-18.45L130.03-18.45Q129.03-16.95 127.5-15.18 125.98-13.4 123.93-11.35L123.93-11.35Q122.98-9.65 122.13-7.9L122.13-7.9Q123.48-8.3 125.28-9.1L125.28-9.1Q126.08-9.35 126.98-9.7 127.88-10.05 128.88-10.55L128.88-10.55Q129.13-10.65 129.43-10.8 129.73-10.95 130.03-11.1L130.03-11.1 131.73-11.85 132.28-11.9Q132.53-11.9 132.38-11.7L132.38-11.7Q132.23-11.4 131.23-10.75 130.23-10.1 129.18-9.55L129.18-9.55 126.38-8.3Q125.43-7.9 124.88-7.65 124.33-7.4 124.13-7.3L124.13-7.3Q123.78-6.85 123.5-6.43 123.23-6 123.03-5.6L123.03-5.6Q123.28-4.5 125.73-2.6L125.73-2.6Q126.73-1.8 127.13-1.45 127.53-1.1 127.43-1.2L127.43-1.2Q128.18-0.65 128.28-0.3L128.28-0.3 128.33-0.1 128.33-0.05Q128.33 0.2 127.88-0.05L127.88-0.05Q127.43-0.15 126.68-0.55L126.68-0.55 124.83-1.5Q123.68-2.1 123-2.5 122.33-2.9 121.78-3.3 121.23-3.7 120.38-4.3L120.38-4.3Q119.28-1.85 118.43 0.05L118.43 0.05Q118.38 0.2 118.35 0.28 118.33 0.35 118.33 0.4L118.33 0.4Q118.33 0.55 118.63 0.65L118.63 0.65Q118.93 0.7 118.98 0.85L118.98 0.85Q119.03 1.05 119.05 1.18 119.08 1.3 119.08 1.35L119.08 1.35Q119.08 2.2 118.15 2.8 117.23 3.4 116.13 3.55ZM124.18-13.4L124.18-13.4Q124.33-13.3 124.93-13.88 125.53-14.45 126.3-15.38 127.08-16.3 127.85-17.32 128.63-18.35 129.08-19.15L129.08-19.15Q129.83-20.45 130.33-21.68 130.83-22.9 130.83-23.55L130.83-23.55Q130.83-24.15 130.38-24.15L130.38-24.15Q129.83-24.15 128.98-23.15 128.13-22.15 127.3-20.7 126.48-19.25 125.88-17.95L125.88-17.95Q125.53-17.15 125.15-16.15 124.78-15.15 124.53-14.38 124.28-13.6 124.18-13.4ZM133.08 0.55L133.08 0.55Q132.03 0.55 131.23 0L131.23 0Q129.93-1 129.93-3L129.93-3Q129.93-5 131.33-7.25 132.73-9.5 135.58-11.4L135.58-11.4Q136.08-11.75 136.93-11.75L136.93-11.75Q138.03-11.75 138.9-11.15 139.78-10.55 139.58-9.6L139.58-9.6Q139.23-8.05 138.05-6.85 136.88-5.65 135.3-4.73 133.73-3.8 132.08-2.95L132.08-2.95Q132.03-2.8 132-2.65 131.98-2.5 131.98-2.35L131.98-2.35Q131.98-1.65 132.45-1.13 132.93-0.6 133.78-0.6L133.78-0.6Q134.43-0.6 134.88-0.8L134.88-0.8Q135.68-1.1 136.2-1.35 136.73-1.6 137.43-2.1 138.13-2.6 139.33-3.6L139.33-3.6Q139.88-4 139.98-4L139.98-4Q140.28-4 140.18-3.55L140.18-3.55Q139.68-2.75 138.45-1.8 137.23-0.85 135.75-0.15 134.28 0.55 133.08 0.55ZM132.38-4.3L132.38-4.3Q132.78-4.3 134.03-5.1 135.28-5.9 136.38-6.85L136.38-6.85Q138.28-8.6 138.28-9.55L138.28-9.55Q138.28-9.8 138.13-10L138.13-10Q137.98-10.25 137.68-10.25L137.68-10.25Q136.73-10.25 134.48-8L134.48-8Q132.93-6.5 132.38-4.3ZM140.12 1.05L140.12 1.05Q139.47 1.05 139.47-0.1L139.47-0.1Q139.47-1.05 139.92-1.95L139.92-1.95Q141.07-4.15 142.02-6.3L142.02-6.3Q142.67-7.6 143.25-8.8 143.82-10 144.32-11L144.32-11Q144.62-11.3 144.92-11.3L144.92-11.3Q145.57-11.3 145.32-10.7L145.32-10.7Q145.22-10.35 145.05-9.88 144.87-9.4 144.62-8.75L144.62-8.75Q143.82-6.65 143.67-5.8L143.67-5.8Q145.07-7.05 146.55-8.13 148.02-9.2 149.32-9.9 150.62-10.6 151.52-10.6L151.52-10.6Q152.32-10.6 152.32-9.95L152.32-9.95Q152.32-9.4 151.82-8.78 151.32-8.15 150.82-8.15L150.82-8.15Q150.57-8.15 150.42-8.3L150.42-8.3Q150.27-8.35 149.82-8.35L149.82-8.35Q148.22-8.35 146.47-6.8L146.47-6.8Q144.62-5.25 143.12-3.08 141.62-0.9 140.92 0.7L140.92 0.7Q140.57 1.05 140.12 1.05Z" opacity="1" transform="matrix(1,0,0,1,0,0)" fill="black" class="wordmark-text-0" id="SvgjsPath1133"></path></svg></g></svg></g></svg></g></svg></g><g transform="matrix(1,0,0,1,120.07825655172414,0)"><svg viewBox="0 0 155.3634868965517 155.36348689655173" height="155.36348689655173" width="155.3634868965517"><g><svg></svg></g><g id="SvgjsG1132"><svg viewBox="0 0 155.3634868965517 155.36348689655173" height="155.36348689655173" width="155.3634868965517"><g><path transform="scale(1.55363,1.55363)" d="M30 100c-16.569 0-30-13.431-30-30v-40c0-16.569 13.431-30 30-30h40c16.569 0 30 13.431 30 30v40c0 16.569-13.431 30-30 30z" fill="black" fill-rule="nonzero" stroke="none" stroke-width="1" stroke-linecap="butt" stroke-linejoin="miter" stroke-miterlimit="10" stroke-dasharray="" stroke-dashoffset="0" font-family="none" font-weight="none" font-size="none" text-anchor="none" style="mix-blend-mode: normal"></path></g><g transform="matrix(1,0,0,1,31.072697379310334,40.67154125266099)"><svg viewBox="0 0 93.21809213793104 74.02040439122976" height="74.02040439122976" width="93.21809213793104"><g><svg xmlns="http://www.w3.org/2000/svg" xmlns:xlink="http://www.w3.org/1999/xlink" version="1.1" x="0" y="0" viewBox="2.635999999999997 11.36 84.727 67.278" enable-background="new 0 0 90 90" xml:space="preserve" height="74.02040439122976" width="93.21809213793104" class="icon-cg-0" data-fill-palette-color="quaternary" id="SvgjsSvg1131"><path d="M65.488 65.37c-0.571 0.471-1.272 0.724-1.988 0.741-0.424 0.009-0.85-0.063-1.255-0.223-0.492-0.195-0.905-0.517-1.24-0.899-3.28 4.264-7.92 7.411-13.282 8.8 2.99-2.082 5.463-5.671 7.121-10.209h5.453c-0.021-0.096-0.063-0.182-0.074-0.279l-0.285-2.165H55.63c0.841-2.991 1.343-6.308 1.438-9.836h1.574l-0.322-2.444h-1.252c-0.045-1.637-0.187-3.225-0.396-4.757-0.779 0.217-1.588 0.431-2.39 0.645 0.174 1.336 0.302 2.7 0.344 4.112h-8.61L45.52 51.3h9.105c-0.104 3.541-0.639 6.884-1.537 9.836H42.795v-5.401l-1.252 0.875c-0.363 0.257-0.772 0.399-1.192 0.486v4.04H30.058c-0.439-1.446-0.79-2.989-1.047-4.6-0.267 0.108-0.542 0.217-0.804 0.329-0.524 0.223-0.992 0.445-1.49 0.668 0.219 1.238 0.477 2.451 0.798 3.603h-7.807v-0.002c-0.703 0.429-1.374 0.857-1.996 1.292-0.491 0.346-0.938 0.686-1.361 1.023 4.805 9.025 14.303 15.189 25.221 15.189 10.239 0 19.208-5.433 24.25-13.549L65.488 65.37zM21.114 63.58h7.188c1.661 4.538 4.13 8.127 7.121 10.209C29.482 72.252 24.412 68.564 21.114 63.58zM40.351 73.266c-3.883-0.645-7.27-4.322-9.421-9.686h9.421V73.266zM42.795 63.58h9.421c-2.149 5.361-5.54 9.041-9.421 9.686V63.58z" fill="black"></path><path d="M87.363 24.459c-3.995-2.627-12.348-0.773-21.615 2.803L49.466 11.36l-5.485 0.188L57.07 30.955c-5.385 2.476-10.719 5.232-15.396 7.779l-6.756-5.102-2.806 0.327 6.977 8.789 0.601 11.208 2.317-1.617 1.677-8.297c5.19-1.188 11.015-2.66 16.687-4.372l3.053 23.206 4.232-3.495 1.654-22.695C78.628 33.219 86.111 29.072 87.363 24.459z" fill="black"></path><path d="M48.527 24.071l-1.348-1.999c-1.819-0.362-3.688-0.56-5.61-0.56-14.262 0-26.082 10.519-28.192 24.199 1.755-1.324 3.46-2.488 5.021-3.501 0.37-1.097 0.789-2.173 1.308-3.194h3.933c1.418-0.817 2.874-1.633 4.406-2.444h-6.933c3.296-4.984 8.368-8.671 14.31-10.209-1.592 1.11-3.032 2.657-4.287 4.538 0.197-0.063 0.393-0.13 0.604-0.153l2.806-0.327c0.017-0.001 0.037 0 0.052-0.001 1.697-1.917 3.647-3.184 5.752-3.532v6.794l1.615 1.221c0.282-0.151 0.549-0.284 0.829-0.435v-7.58c2.373 0.393 4.56 1.933 6.396 4.285l3.166-1.505L48.527 24.071z" fill="black"></path><path d="M35.919 43.951l-4.397-5.538c-2.987 1.531-6.322 3.345-9.807 5.517-3.892 2.446-7.978 5.27-11.725 8.869-1.86 1.813-3.648 3.828-5.098 6.258-0.717 1.217-1.339 2.549-1.767 3.991-0.115 0.353-0.192 0.733-0.28 1.101-0.047 0.183-0.069 0.375-0.104 0.563l-0.102 0.681-0.003 0.832 0.023 1.226c0.107 1.477 0.501 3.049 1.285 4.42 0.766 1.383 1.916 2.446 3.06 3.128 2.327 1.363 4.509 1.586 6.388 1.697 3.773 0.115 6.669-0.5 8.695-0.902 0.631-0.134 1.162-0.256 1.612-0.361-5.88-0.309-9.543-1.719-11.51-2.787-0.562-0.285-1.083-0.605-1.528-0.977-0.205-0.159-0.317-0.263-0.317-0.263l0.038-0.003c-0.121-0.115-0.262-0.223-0.364-0.346-0.886-1.059-0.909-2.021-0.595-3.401 0.054-0.142 0.101-0.271 0.14-0.405l0.239-0.799 0.008-0.023c0.022-0.125-0.022 0.141-0.016 0.106l0.013-0.028 0.022-0.063 0.044-0.121c0.033-0.079 0.051-0.159 0.092-0.242 0.079-0.163 0.133-0.326 0.228-0.491 0.332-0.663 0.786-1.338 1.348-2.008 1.127-1.343 2.652-2.629 4.323-3.804 3.372-2.351 7.309-4.276 11.085-5.885 3.284-1.394 6.455-2.523 9.317-3.473L35.919 43.951z" fill="black"></path></svg></g></svg></g></svg></g></svg></g><g></g></svg></g><defs><mask></mask></defs></svg><rect width="332.19550318819887" height="247.2" fill="black" stroke="none" visibility="hidden"></rect></g></mask></svg><rect width="332.19550318819887" height="247.2" fill="black" stroke="none" visibility="hidden"></rect></g></mask><linearGradient x1="0" x2="1" y1="0.5" y2="0.5" id="ca016b21-161c-4d2a-8398-310632f00444"><stop stop-color="#ffa62e" offset="0"></stop><stop stop-color="#f71b3d" offset="1"></stop></linearGradient><rect width="332.19550318819887" height="247.2" fill="url(#ca016b21-161c-4d2a-8398-310632f00444)" mask="url(#7aaf874d-15db-4312-af3a-71a373f99445)" data-fill-palette-color="accent"></rect></svg><rect width="332.19550318819887" height="247.2" fill="none" stroke="none" visibility="hidden"></rect></g></svg></g></svg>